<!-- Generator: Adobe Illustrator 19.0.0, SVG Export Plug-In  -->
<svg version="1.1"
	 xmlns="http://www.w3.org/2000/svg" xmlns:xlink="http://www.w3.org/1999/xlink" xmlns:a="http://ns.adobe.com/AdobeSVGViewerExtensions/3.0/"
	 x="0px" y="0px" width="70.2px" height="67.1px" viewBox="0 0 70.2 67.1" style="enable-background:new 0 0 70.2 67.1;"
	 xml:space="preserve">
<style type="text/css">
	.st0{fill:#292999;}
	.st1{fill:#06061C;}
</style>
<defs>
</defs>
<g id="XMLID_22_">
	<path id="XMLID_26_" class="st0" d="M58.2,14.1c1.9-3,9.2-8.7,9.2-8.7l2-1.8c0,0,1.9-1.4,0-2.5c-1.9-1.1-5.1-0.9-5.1-0.9
		s-4.6-0.3-6.5,0.2C56.4,0.7,55,1.7,53.4,4c-1.7,3-4.5,7.1-6.6,8.4s-9,0.7-17.4,0.1S17.6,14,13.5,17.3c-2.2,1.8-4.2,4.8-7.5,7.3
		c-6.6,4.8-8.2,11.2-2.2,16.1c5.3,4.4,21.7-2.3,21.7-2.3s3.4-0.8,2.7-2.4c-0.8-1.8-3.8,0.7-12.8,2.8c-6.5,1.6-9.4-0.7-10.4-1.7
		C3.8,36,1.3,31,9.3,27.2c3.4-1.6,5.9,2.1,5.9,2.1s0.6,1.9,0.7,5.8c0.1,3.1,2.8,2.5,2.8,2.5l4.8-0.3c0,0,0-2.8,0.1-4.2
		c0,0,1.8-2.7,2.6-2.9c0.8-0.3,14.6-0.3,14.6-0.3s-0.2,2,0,3.4c0.2,1.4,2.3,4.7,3.4,5.2c1.1,0.5,2.3,0.2,3.1,0c0.8-0.2-1.4-2-1.4-2
		s-1.2-2.7-1.1-3.9c0.1-1.1,0.2-1.3,0.5-2c0.2-0.7,1.5-2.8,1.8-0.2c0.1,0.7,0.3,2.2,1.7,4.5c1.4,2.2,1,3.7,1.9,4.2
		c0.9,0.5,2.8,0.4,3.8,0.3c1-0.2-1.1-1.2-1.6-2.7c-0.6-1.6-1.2-7.1,0.3-10.2c1.1-2.4,3-6.6,3.3-7.6C57.1,16.8,56.3,17,58.2,14.1z"/>
	<polygon id="XMLID_23_" class="st1" points="27.2,57.5 35,66.4 43,57.1 43,67.1 55,67.1 54.9,37.2 42.4,37.4 42.4,41.9 35,49.4 
		27.9,43.2 27.8,37.2 15.2,37.2 15.2,67.1 27.2,67.1 	"/>
</g>
</svg>