<!-- Generator: Adobe Illustrator 19.0.0, SVG Export Plug-In  -->
<svg version="1.1"
	 xmlns="http://www.w3.org/2000/svg" xmlns:xlink="http://www.w3.org/1999/xlink" xmlns:a="http://ns.adobe.com/AdobeSVGViewerExtensions/3.0/"
	 x="0px" y="0px" width="94.6px" height="88.5px" viewBox="0 0 94.6 88.5" style="enable-background:new 0 0 94.6 88.5;"
	 xml:space="preserve">
<style type="text/css">
	.st0{fill:#292999;}
	.st1{fill:#06061C;}
</style>
<defs>
</defs>
<g id="XMLID_39_">
	<g id="XMLID_70_">
		<path id="XMLID_74_" class="st0" d="M72,14.1c1.9-3,9.2-8.7,9.2-8.7l2-1.8c0,0,1.9-1.4,0-2.5S78,0.1,78,0.1s-4.6-0.3-6.5,0.2
			c-1.3,0.4-2.7,1.3-4.3,3.7c-1.7,3-4.5,7.1-6.6,8.4s-9,0.7-17.4,0.1S31.4,14,27.3,17.3c-2.2,1.8-4.2,4.8-7.5,7.3
			c-6.6,4.8-8.2,11.2-2.2,16.1c5.3,4.4,21.7-2.3,21.7-2.3s3.4-0.8,2.7-2.4c-0.8-1.8-3.8,0.7-12.8,2.8c-6.5,1.6-9.4-0.7-10.4-1.7
			c-1.1-1.2-3.7-6.2,4.4-9.9c3.4-1.6,5.9,2.1,5.9,2.1s0.6,1.9,0.7,5.8c0.1,3.1,2.8,2.5,2.8,2.5l4.8-0.3c0,0,0-2.8,0.1-4.2
			c0,0,1.8-2.7,2.6-2.9c0.8-0.3,14.6-0.3,14.6-0.3s-0.2,2,0,3.4c0.2,1.4,2.3,4.7,3.4,5.2c1.1,0.5,2.3,0.2,3.1,0c0.8-0.2-1.4-2-1.4-2
			s-1.2-2.7-1.1-3.9c0.1-1.1,0.2-1.3,0.5-2s1.5-2.8,1.8-0.2c0.1,0.7,0.3,2.2,1.7,4.5c1.4,2.2,1,3.7,1.9,4.2c0.9,0.5,2.8,0.4,3.8,0.3
			c1-0.2-1.1-1.2-1.6-2.7c-0.6-1.6-1.2-7.1,0.3-10.2c1.1-2.4,3-6.6,3.3-7.6C70.9,16.8,70.1,17,72,14.1z"/>
		<polygon id="XMLID_71_" class="st1" points="41,57.5 48.8,66.4 56.9,57.1 56.9,67.1 68.8,67.1 68.7,37.2 56.2,37.4 56.2,41.9 
			48.8,49.4 41.7,43.2 41.6,37.2 29,37.2 29,67.1 41,67.1 		"/>
	</g>
	<g id="XMLID_40_">
		<path id="XMLID_68_" d="M11.6,88.3l-1.6-8.8l-3,9H6.5l-3.1-9l-1.6,8.8H0l2.6-13.8h0.9l3.3,10l3-10h0.8l2.8,13.8H11.6z"/>
		<path id="XMLID_65_" d="M14.1,83.3c0-1.6,0.4-2.8,1.3-3.8c0.8-1,1.9-1.4,3.3-1.4c1.4,0,2.6,0.5,3.4,1.4s1.2,2.2,1.2,3.8
			c0,1.6-0.4,2.9-1.2,3.8c-0.8,0.9-1.9,1.4-3.3,1.4c-1.4,0-2.6-0.5-3.4-1.4S14.1,84.9,14.1,83.3z M15.9,83.3c0,2.5,0.9,3.8,2.7,3.8
			c0.8,0,1.5-0.3,2-1c0.5-0.7,0.7-1.6,0.7-2.8c0-2.5-0.9-3.7-2.7-3.7c-0.8,0-1.5,0.3-1.9,1C16.2,81.2,15.9,82.1,15.9,83.3z"/>
		<path id="XMLID_63_" d="M30.5,80c-0.4-0.3-0.8-0.4-1.2-0.4c-0.6,0-1.2,0.3-1.7,0.9c-0.5,0.6-0.7,1.3-0.7,2.1v5.8h-1.8V78.3H27v1.6
			c0.7-1.2,1.6-1.8,2.9-1.8c0.3,0,0.8,0.1,1.4,0.2L30.5,80z"/>
		<path id="XMLID_61_" d="M31.9,87.7l0.6-1.7c1,0.7,1.8,1,2.4,1c1.1,0,1.7-0.5,1.7-1.4c0-0.7-0.5-1.2-1.6-1.7
			c-0.8-0.4-1.4-0.7-1.7-0.9c-0.3-0.2-0.5-0.4-0.7-0.7c-0.2-0.2-0.4-0.5-0.5-0.8c-0.1-0.3-0.2-0.6-0.2-0.9c0-0.8,0.3-1.5,0.9-1.9
			c0.6-0.5,1.4-0.7,2.4-0.7c0.7,0,1.7,0.2,2.8,0.7l-0.5,1.7c-0.7-0.6-1.4-0.8-2.1-0.8c-0.4,0-0.8,0.1-1.1,0.3
			c-0.3,0.2-0.4,0.5-0.4,0.8c0,0.6,0.4,1.1,1.1,1.5l1.3,0.6c0.8,0.4,1.4,0.8,1.7,1.2s0.5,1,0.5,1.7c0,0.9-0.3,1.6-0.9,2.1
			c-0.6,0.5-1.5,0.8-2.6,0.8C33.8,88.5,32.8,88.3,31.9,87.7z"/>
		<path id="XMLID_57_" d="M41.6,87.8L41,88.5h-1.4l1.1-1.5c-0.7-0.9-1.1-2.2-1.1-3.7c0-1.6,0.4-2.8,1.3-3.8c0.8-1,1.9-1.4,3.3-1.4
			c1,0,1.9,0.2,2.6,0.7l0.5-0.7h1.4l-1.1,1.5c0.7,0.9,1.1,2.1,1.1,3.7c0,1.6-0.4,2.9-1.2,3.8c-0.8,0.9-1.9,1.4-3.3,1.4
			C43.1,88.5,42.3,88.3,41.6,87.8z M41.8,85.6l4-5.4c-0.5-0.3-1-0.5-1.6-0.5c-0.8,0-1.5,0.3-2,1s-0.8,1.5-0.8,2.7
			C41.4,84.2,41.5,85,41.8,85.6z M42.5,86.5c0.4,0.4,1,0.6,1.6,0.6c0.8,0,1.5-0.3,2-1c0.5-0.7,0.8-1.6,0.8-2.8
			c0-0.9-0.1-1.7-0.4-2.2L42.5,86.5z"/>
		<path id="XMLID_48_" d="M67.1,88.3l-1.6-8.8l-3,9H62l-3.1-9l-1.6,8.8h-1.8l2.6-13.8h0.9l3.3,10l3-10h0.8l2.8,13.8H67.1z"/>
		<path id="XMLID_45_" d="M71.1,88.3v-8.6h-1.4v-1.5h3.2v10.1H71.1z M72.1,74.5c0.3,0,0.6,0.1,0.8,0.3c0.2,0.2,0.3,0.5,0.3,0.8
			c0,0.3-0.1,0.6-0.3,0.8c-0.2,0.2-0.5,0.3-0.8,0.3c-0.3,0-0.6-0.1-0.8-0.3c-0.2-0.2-0.3-0.5-0.3-0.8s0.1-0.6,0.3-0.8
			S71.8,74.5,72.1,74.5z"/>
		<path id="XMLID_43_" d="M81.9,88.3v-5.8c0-1.1-0.2-1.8-0.5-2.2c-0.3-0.4-0.9-0.6-1.6-0.6c-0.4,0-0.8,0.1-1.3,0.4s-0.8,0.5-1,0.9
			v7.5h-1.8V78.3h1.2l0.6,1.3c0.6-1,1.5-1.5,2.9-1.5c2.2,0,3.3,1.3,3.3,4v6.2H81.9z"/>
		<path id="XMLID_41_" d="M92.7,88.3l-3.2-5L88,84.9v3.4h-1.8V74.2H88V83l3.8-4.7h2.1l-3.2,3.8l3.9,6.2H92.7z"/>
	</g>
</g>
</svg>